<?xml version="1.0" standalone="no"?><!DOCTYPE svg PUBLIC "-//W3C//DTD SVG 1.1//EN" "http://www.w3.org/Graphics/SVG/1.1/DTD/svg11.dtd"><svg t="1744424483346" class="icon" viewBox="0 0 1024 1024" version="1.1" xmlns="http://www.w3.org/2000/svg" p-id="9960" xmlns:xlink="http://www.w3.org/1999/xlink" width="200" height="200"><path d="M940.31 406.17L530.94 91.44a30.23 30.23 0 0 0-36.84 0L84.72 406.17A31.67 31.67 0 0 0 104 463h106v381a88.75 88.75 0 0 0 88.65 88.65H440V647a73 73 0 0 1 146 0v285.68h140.43A88.75 88.75 0 0 0 815.08 844V463H921a31.67 31.67 0 0 0 19.3-56.78zM795.6 423a20.54 20.54 0 0 0-20.52 20.52V844a48.7 48.7 0 0 1-48.65 48.65H626V647a113 113 0 0 0-226 0v245.68H298.6A48.7 48.7 0 0 1 250 844V443.47A20.54 20.54 0 0 0 229.43 423H128.51l384-295.22L896.52 423z" fill="#A86FF7" p-id="9961"></path></svg>